<svg width="30" height="30" viewBox="0 0 30 30" fill="none" xmlns="http://www.w3.org/2000/svg">
<path d="M17.375 14.4094C17.2724 14.4097 17.1707 14.3896 17.076 14.3503C16.9812 14.311 16.8952 14.2531 16.823 14.1802C16.6777 14.0332 16.5962 13.8348 16.5962 13.6281C16.5962 13.4214 16.6777 13.223 16.823 13.076L25.3646 4.53436C25.5127 4.39636 25.7086 4.32123 25.911 4.3248C26.1134 4.32837 26.3065 4.41036 26.4497 4.5535C26.5928 4.69664 26.6748 4.88975 26.6784 5.09214C26.6819 5.29454 26.6068 5.49042 26.4688 5.63852L17.9271 14.1802C17.8547 14.2528 17.7686 14.3104 17.6739 14.3497C17.5792 14.3891 17.4776 14.4093 17.375 14.4094Z" fill="#3E7B6B"/>
<path d="M21.573 15.2396H16.5417C16.335 15.2382 16.137 15.1554 15.9908 15.0092C15.8446 14.863 15.7619 14.6651 15.7605 14.4583V9.42706C15.7619 9.22028 15.8446 9.02236 15.9908 8.87614C16.137 8.72993 16.335 8.64718 16.5417 8.64581C16.7485 8.64718 16.9464 8.72993 17.0927 8.87614C17.2389 9.02236 17.3216 9.22028 17.323 9.42706V13.6771H21.573C21.7802 13.6771 21.9789 13.7594 22.1254 13.9059C22.2719 14.0524 22.3542 14.2511 22.3542 14.4583C22.3542 14.6655 22.2719 14.8642 22.1254 15.0107C21.9789 15.1573 21.7802 15.2396 21.573 15.2396Z" fill="#3E7B6B"/>
<path d="M18.6249 26.6979H12.3749C6.71867 26.6979 4.302 24.2813 4.302 18.625V12.375C4.302 6.71876 6.71867 4.30209 12.3749 4.30209H14.4583C14.665 4.30346 14.863 4.38621 15.0092 4.53242C15.1554 4.67864 15.2381 4.87656 15.2395 5.08334C15.2381 5.29012 15.1554 5.48804 15.0092 5.63426C14.863 5.78048 14.665 5.86323 14.4583 5.86459H12.3749C7.57284 5.86459 5.8645 7.57293 5.8645 12.375V18.625C5.8645 23.4271 7.57284 25.1354 12.3749 25.1354H18.6249C23.427 25.1354 25.1353 23.4271 25.1353 18.625V16.5417C25.1353 16.3345 25.2176 16.1358 25.3642 15.9893C25.5107 15.8427 25.7094 15.7604 25.9166 15.7604C26.1238 15.7604 26.3225 15.8427 26.469 15.9893C26.6155 16.1358 26.6978 16.3345 26.6978 16.5417V18.625C26.6978 24.2813 24.2812 26.6979 18.6249 26.6979Z" fill="#3E7B6B"/>
</svg>
