<svg width="24" height="24" viewBox="0 0 24 24" fill="none" xmlns="http://www.w3.org/2000/svg">
<path d="M12 9.75104C11.8019 9.74895 11.6125 9.66902 11.4727 9.52852C11.333 9.38802 11.2541 9.19821 11.253 9.00004V3.81004L10.533 4.53004C10.3908 4.66252 10.2028 4.73465 10.0085 4.73122C9.8142 4.72779 9.62881 4.64908 9.4914 4.51167C9.35399 4.37425 9.27527 4.18887 9.27185 3.99457C9.26842 3.80027 9.34054 3.61222 9.47302 3.47004L11.473 1.47004C11.5786 1.3654 11.7129 1.29436 11.8588 1.26589C12.0047 1.23742 12.1558 1.25278 12.293 1.31004C12.4298 1.36608 12.5466 1.46172 12.6286 1.58467C12.7106 1.70762 12.7539 1.85228 12.753 2.00004V9.00004C12.752 9.19924 12.6722 9.38995 12.5312 9.53062C12.3901 9.67129 12.1992 9.75052 12 9.75104Z" fill="white"/>
<path d="M14 4.75295C13.9015 4.7533 13.8039 4.73403 13.7129 4.69626C13.6219 4.65849 13.5393 4.60297 13.47 4.53295L11.47 2.53295C11.3292 2.39238 11.2499 2.20163 11.2498 2.00266C11.2496 1.80368 11.3284 1.61278 11.469 1.47195C11.6096 1.33112 11.8003 1.2519 11.9993 1.25171C12.1983 1.25152 12.3892 1.33038 12.53 1.47095L14.53 3.47095C14.6695 3.61209 14.7477 3.80252 14.7477 4.00095C14.7477 4.19938 14.6695 4.38981 14.53 4.53095C14.4609 4.60133 14.3784 4.65722 14.2874 4.69534C14.1964 4.73346 14.0987 4.75304 14 4.75295Z" fill="white"/>
<path d="M13.76 17.75H10.23C9.71877 17.7523 9.21719 17.611 8.78229 17.3423C8.3474 17.0736 7.99666 16.6882 7.76998 16.23L6.59998 13.89C6.5807 13.848 6.54968 13.8124 6.51065 13.7875C6.47162 13.7627 6.42624 13.7497 6.37998 13.75H1.97998C1.78147 13.7487 1.59147 13.6693 1.4511 13.5289C1.31073 13.3885 1.23129 13.1985 1.22998 13C1.23129 12.8015 1.31073 12.6115 1.4511 12.4711C1.59147 12.3308 1.78147 12.2513 1.97998 12.25H6.38998C6.71623 12.2486 7.03634 12.3387 7.31389 12.5102C7.59144 12.6817 7.81529 12.9276 7.95998 13.22L9.12998 15.56C9.2323 15.7692 9.39184 15.945 9.59008 16.0672C9.78833 16.1893 10.0171 16.2527 10.25 16.25H13.78C14.0128 16.2527 14.2416 16.1893 14.4399 16.0672C14.6381 15.945 14.7977 15.7692 14.9 15.56L16.07 13.22C16.2147 12.9276 16.4385 12.6817 16.7161 12.5102C16.9936 12.3387 17.3137 12.2486 17.64 12.25H22C22.1985 12.2513 22.3885 12.3308 22.5289 12.4711C22.6692 12.6115 22.7487 12.8015 22.75 13C22.7487 13.1985 22.6692 13.3885 22.5289 13.5289C22.3885 13.6693 22.1985 13.7487 22 13.75H17.64C17.5934 13.7483 17.5475 13.7608 17.5082 13.7858C17.4689 13.8108 17.4382 13.8472 17.42 13.89L16.25 16.23C16.0139 16.6871 15.6569 17.0706 15.2178 17.3386C14.7787 17.6066 14.2744 17.749 13.76 17.75Z" fill="white"/>
<path d="M15 22.75H9C3.57 22.75 1.25 20.43 1.25 15V12C1.25 7.31 2.99 4.96 6.89 4.39C6.9873 4.37457 7.0867 4.3787 7.18238 4.40215C7.27807 4.4256 7.36812 4.46789 7.44727 4.52655C7.52641 4.58521 7.59307 4.65906 7.64333 4.74379C7.69359 4.82852 7.72646 4.92242 7.74 5.02C7.7546 5.1172 7.74987 5.21632 7.72609 5.31169C7.70231 5.40706 7.65994 5.49679 7.60142 5.57576C7.54289 5.65472 7.46936 5.72136 7.38503 5.77185C7.3007 5.82234 7.20724 5.8557 7.11 5.87C3.97 6.33 2.75 8.05 2.75 12V15C2.75 19.61 4.39 21.25 9 21.25H15C19.61 21.25 21.25 19.61 21.25 15V12C21.25 8.05 20.03 6.33 16.89 5.87C16.6937 5.84083 16.5171 5.73488 16.399 5.57548C16.2808 5.41607 16.2308 5.21626 16.26 5.02C16.2892 4.82374 16.3951 4.64711 16.5545 4.52896C16.7139 4.41081 16.9137 4.36083 17.11 4.39C21.01 4.96 22.75 7.31 22.75 12V15C22.75 20.43 20.43 22.75 15 22.75Z" fill="white"/>
</svg>
